<svg xmlns="http://www.w3.org/2000/svg" xmlns:xlink="http://www.w3.org/1999/xlink" width="150" zoomAndPan="magnify" viewBox="0 0 112.5 37.5" height="50" preserveAspectRatio="xMidYMid meet" version="1.0"><defs><g/></defs><g fill="#3868ca" fill-opacity="1"><g transform="translate(0.956932, 26.211484)"><g><path d="M 0.875 -11.25 L 6.046875 -11.25 C 7.765625 -11.25 8.625 -10.523438 8.625 -9.078125 L 8.625 -2.171875 C 8.625 -0.722656 7.765625 0 6.046875 0 L 0.875 0 Z M 5.546875 -2.40625 L 5.546875 -8.84375 C 5.546875 -9.101562 5.398438 -9.234375 5.109375 -9.234375 L 3.9375 -9.234375 L 3.9375 -2.015625 L 5.109375 -2.015625 C 5.398438 -2.015625 5.546875 -2.144531 5.546875 -2.40625 Z M 5.546875 -2.40625 "/></g></g></g><g fill="#3868ca" fill-opacity="1"><g transform="translate(10.220784, 26.211484)"><g><path d="M 3.765625 -2.1875 L 7.609375 -2.1875 L 7.609375 0 L 0.703125 0 L 0.703125 -11.25 L 7.4375 -11.25 L 7.4375 -9.0625 L 3.765625 -9.0625 L 3.765625 -6.765625 L 6.9375 -6.765625 L 6.9375 -4.578125 L 3.765625 -4.578125 Z M 3.765625 -2.1875 "/></g></g></g><g fill="#3868ca" fill-opacity="1"><g transform="translate(18.083675, 26.211484)"><g><path d="M 6.03125 -11.25 L 9.21875 -11.25 L 6.453125 0 L 2.890625 0 L 0.125 -11.25 L 3.3125 -11.25 L 4.65625 -3.734375 Z M 6.03125 -11.25 "/></g></g></g><g fill="#3868ca" fill-opacity="1"><g transform="translate(27.417573, 26.211484)"><g><path d="M 3.765625 -2.1875 L 7.609375 -2.1875 L 7.609375 0 L 0.703125 0 L 0.703125 -11.25 L 7.4375 -11.25 L 7.4375 -9.0625 L 3.765625 -9.0625 L 3.765625 -6.765625 L 6.9375 -6.765625 L 6.9375 -4.578125 L 3.765625 -4.578125 Z M 3.765625 -2.1875 "/></g></g></g><g fill="#3868ca" fill-opacity="1"><g transform="translate(35.280464, 26.211484)"><g><path d="M 3.765625 -2.1875 L 7.25 -2.1875 L 7.25 0 L 0.703125 0 L 0.703125 -11.25 L 3.765625 -11.25 Z M 3.765625 -2.1875 "/></g></g></g><g fill="#3868ca" fill-opacity="1"><g transform="translate(42.530434, 26.211484)"><g><path d="M 3.21875 -11.25 L 5.8125 -11.25 C 7.53125 -11.25 8.390625 -10.523438 8.390625 -9.078125 L 8.390625 -2.171875 C 8.390625 -0.722656 7.53125 0 5.8125 0 L 3.21875 0 C 1.5 0 0.640625 -0.722656 0.640625 -2.171875 L 0.640625 -9.078125 C 0.640625 -10.523438 1.5 -11.25 3.21875 -11.25 Z M 5.328125 -2.578125 L 5.328125 -8.671875 C 5.328125 -8.929688 5.179688 -9.0625 4.890625 -9.0625 L 4.15625 -9.0625 C 3.863281 -9.0625 3.71875 -8.929688 3.71875 -8.671875 L 3.71875 -2.578125 C 3.71875 -2.316406 3.863281 -2.1875 4.15625 -2.1875 L 4.890625 -2.1875 C 5.179688 -2.1875 5.328125 -2.316406 5.328125 -2.578125 Z M 5.328125 -2.578125 "/></g></g></g><g fill="#3868ca" fill-opacity="1"><g transform="translate(51.566626, 26.211484)"><g><path d="M 0.703125 -11.25 L 5.90625 -11.25 C 7.625 -11.25 8.484375 -10.523438 8.484375 -9.078125 L 8.484375 -5.84375 C 8.484375 -4.394531 7.625 -3.671875 5.90625 -3.671875 L 3.765625 -3.671875 L 3.765625 0 L 0.703125 0 Z M 5.40625 -6.25 L 5.40625 -8.671875 C 5.40625 -8.929688 5.257812 -9.0625 4.96875 -9.0625 L 3.765625 -9.0625 L 3.765625 -5.875 L 4.96875 -5.875 C 5.257812 -5.875 5.40625 -6 5.40625 -6.25 Z M 5.40625 -6.25 "/></g></g></g><g fill="#3868ca" fill-opacity="1"><g transform="translate(60.392677, 26.211484)"><g><path d="M 3.4375 0 L 0.703125 0 L 0.703125 -11.25 L 4.046875 -11.25 L 5.875 -5.234375 L 7.6875 -11.25 L 11.03125 -11.25 L 11.03125 0 L 8.3125 0 L 8.3125 -7.140625 L 6.921875 -2.4375 L 4.8125 -2.4375 L 3.4375 -7.109375 Z M 3.4375 0 "/></g></g></g><g fill="#3868ca" fill-opacity="1"><g transform="translate(72.125719, 26.211484)"><g><path d="M 3.765625 -2.1875 L 7.609375 -2.1875 L 7.609375 0 L 0.703125 0 L 0.703125 -11.25 L 7.4375 -11.25 L 7.4375 -9.0625 L 3.765625 -9.0625 L 3.765625 -6.765625 L 6.9375 -6.765625 L 6.9375 -4.578125 L 3.765625 -4.578125 Z M 3.765625 -2.1875 "/></g></g></g><g fill="#3868ca" fill-opacity="1"><g transform="translate(79.98861, 26.211484)"><g><path d="M 5.828125 -11.25 L 8.640625 -11.25 L 8.640625 0 L 6.015625 0 L 3.5 -5.90625 L 3.5 0 L 0.703125 0 L 0.703125 -11.25 L 3.328125 -11.25 L 5.828125 -5.234375 Z M 5.828125 -11.25 "/></g></g></g><g fill="#3868ca" fill-opacity="1"><g transform="translate(89.322508, 26.211484)"><g><path d="M 7.484375 -11.25 L 7.484375 -9.0625 L 5.3125 -9.0625 L 5.3125 0 L 2.234375 0 L 2.234375 -9.0625 L 0.09375 -9.0625 L 0.09375 -11.25 Z M 7.484375 -11.25 "/></g></g></g><g fill="#3868ca" fill-opacity="1"><g transform="translate(98.02443, 19.941044)"><g><path d="M 3.171875 0 L 3 -0.828125 L 1.671875 -0.828125 L 1.484375 0 L 0 0 L 1.421875 -5.53125 L 3.265625 -5.53125 L 4.6875 0 Z M 1.890625 -1.890625 L 2.765625 -1.890625 L 2.34375 -3.890625 Z M 1.890625 -1.890625 "/></g></g></g><g fill="#3868ca" fill-opacity="1"><g transform="translate(102.751801, 19.941044)"><g><path d="M 0.34375 -5.53125 L 1.75 -5.53125 L 1.75 -3.25 L 0.34375 -3.25 Z M 0.34375 -5.53125 "/></g></g></g><g fill="#3868ca" fill-opacity="1"><g transform="translate(104.89119, 19.941044)"><g><path d="M 2.46875 -1.265625 L 2.46875 -2.046875 C 2.46875 -2.179688 2.394531 -2.25 2.25 -2.25 L 1.421875 -2.25 C 0.992188 -2.25 0.691406 -2.335938 0.515625 -2.515625 C 0.347656 -2.703125 0.265625 -2.972656 0.265625 -3.328125 L 0.265625 -4.46875 C 0.265625 -5.175781 0.679688 -5.53125 1.515625 -5.53125 L 2.703125 -5.53125 C 3.535156 -5.53125 3.953125 -5.175781 3.953125 -4.46875 L 3.953125 -3.796875 L 2.453125 -3.796875 L 2.453125 -4.265625 C 2.453125 -4.390625 2.378906 -4.453125 2.234375 -4.453125 L 1.984375 -4.453125 C 1.835938 -4.453125 1.765625 -4.390625 1.765625 -4.265625 L 1.765625 -3.453125 C 1.765625 -3.328125 1.835938 -3.265625 1.984375 -3.265625 L 2.796875 -3.265625 C 3.222656 -3.265625 3.523438 -3.171875 3.703125 -2.984375 C 3.878906 -2.804688 3.96875 -2.546875 3.96875 -2.203125 L 3.96875 -1.0625 C 3.96875 -0.351562 3.550781 0 2.71875 0 L 1.546875 0 C 0.703125 0 0.28125 -0.351562 0.28125 -1.0625 L 0.28125 -1.734375 L 1.78125 -1.734375 L 1.78125 -1.265625 C 1.78125 -1.140625 1.851562 -1.078125 2 -1.078125 L 2.25 -1.078125 C 2.394531 -1.078125 2.46875 -1.140625 2.46875 -1.265625 Z M 2.46875 -1.265625 "/></g></g></g></svg>